<svg id="Layer_1" data-name="Layer 1" xmlns="http://www.w3.org/2000/svg" viewBox="0 0 1366 768"><defs><style>.cls-1{fill:#fff;}.cls-1,.cls-2,.cls-3,.cls-4,.cls-5{stroke:#4d4d4d;stroke-miterlimit:10;stroke-width:2px;}.cls-2{fill:#7eacb5;}.cls-3{fill:#eba60f;}.cls-4{fill:#eba712;}</style></defs><title>logo</title><path class="cls-1" d="M724.46,335c15.63-1.42,15.62-1.42,15.63,18.94q0,33.25.07,66.53l-.48,5.76c-8.1,23.47-24.21,20.79-39.59,20.51-2.38-1.25-4.93-2.13-7.1-3.81-5.49-4.25-12.28-11-9.1-18.36,2.18-5.06,12-4.85,17,.33,6.18,6.5,12.42,6.65,18.29,2.6s5.46-12.67,4.73-20.54c-16.43,11.79-30.41,8.87-38.42-7.9C676.32,380,680,347.78,693,336.79c9.07-7.65,18.7-8.09,27.57.91C724.33,341.51,724.53,339.29,724.46,335ZM697.57,372.6c-.11,15.62,4.86,24.34,13.66,24,8.2-.32,13.08-9.17,13.06-23.62,0-14.2-5.16-23.18-13.36-23.37S697.68,357.9,697.57,372.6Z"/><path class="cls-1" d="M556.49,369c5.3-29.47,15.8-40.56,35.14-37.1,14.92,2.67,26.46,23.62,24.06,42.8-.83,6.58-4.12,5.47-7.25,5.5-9.14.09-18.29.43-27.41-.09-7.91-.44-7.75,4.22-4.78,11,4.13,9.52,12.16,10.86,16.83,5.32,6.53-7.75,13.46-5.49,20.34-7-1.86,15.78-10.15,25.57-23.46,27.71-13.61,2.18-25.76-7-30.47-23.14C557.14,386,556.76,377.5,556.49,369ZM586.07,367c3.74-3.66,10.9,4.47,11.56-5.12.55-7.81-4.82-12.47-11.12-12.6s-11.69,4.33-11.51,12.13C575.23,371.89,582.68,363,586.07,367Z"/><path class="cls-1" d="M640.62,337.51c15.51-8.72,22.64-7.49,33,5.72,4.2,21.65,1.44,43.68,2.08,65.53.27,9.19-5.47,5.29-8.84,5.82-4.09.64-8.13.93-7.94-7.43.31-13.83,0-27.68,0-41.52,0-8.47-1.66-15.65-9.52-15.56-7.27.08-11.93,5.51-12.34,14.9-.58,13.33-.7,26.74-.21,40.07.33,8.93-2.86,9.66-8.47,9.9-6.27.26-8.2-2.21-8-10.4.44-19.56,0-39.14.26-58.71,0-3.72-2.22-10.22,2.29-10.79,4.33-.55,10.12-4.55,13.45,3.21C638.54,343.32,639.38,339.34,640.62,337.51Z"/><path class="cls-2" d="M531.36,312.58c4.5,1.54,9.35,1.53,13.7,3.77,2.53,1.31,5,2.59,6.88,4.9,3.23,4,2.61,6.52-2.25,7.37-5.87,1-11.82,1.57-17.76,2-4.52.37-6.8,1.5-6.68,7.5.46,22.9.09,45.81.24,68.72,0,8.76-.67,17.29-3.84,25.45-5.7,8.76-14.34,10.79-23.47,11.48-4.76.36-9.55.33-14.32.32-1.56,0-3.72.9-3.85-2.34s1.76-2.7,3.53-2.73c.79,0,1.59,0,2.39,0,10.21-.46,16.22-6.51,16.79-17.48,1.28-25.05-.42-50.11-.15-75.16.24-21.88.06-43.78,3.76-65.39,4.62-27,32.17-46.23,56.47-39.75,11.94,3.18,21.44,14.1,23.25,27,1,6.88-.46,13.15-5.67,17.84a9.88,9.88,0,0,1-14.06-.79c-2.87-3.34-2.5-9.24,1.64-13,3.88-3.54,3.11-6.87,1-10.61-4.74-8.2-16.51-13.77-25.38-12.07-10.09,1.93-15.26,7.51-17.46,19.66-2.45,13.48-.83,27.11-.6,40.67C525.55,314.64,529.24,312.05,531.36,312.58Z"/><path class="cls-3" d="M525.45,438c14.21-2.82,28.43-5.5,43-4.22,4,.36,7.88,1.25,10.7,4.64,1.07,1.28,3.46,2.12,2.38,4.47-.83,1.81-2.8,1.21-4.32,1.22-9.7.11-19.4.16-29.1.23H515.19C517.67,439.26,522.5,440.42,525.45,438Z"/><path class="cls-4" d="M613.46,265l-23.81,12.35c-1.46-2.48-.78-4.62-.94-6.64-.74-9.56-.71-9.54,8.67-8.51,2.77.3,5.54.5,8.32.71,2.5.19,5,.32,7.5.48Z"/><path class="cls-5" d="M548.65,276.91c-4.48-.53-7.56-2.9-8.4-7.64-.8-4.51,1.16-8,5-9.71,2.12-.93,5.86-2.8,5.23,3a3.12,3.12,0,0,0,1.75,3.06c1.94,1.12,6.14-.28,4.38,4.83C555.2,274.51,552.41,276.33,548.65,276.91Z"/><path class="cls-1" d="M745.83,372.85c0-24.83,13.4-41.17,30.71-41.17s30.72,16,30.72,41.17-12,41.8-30.72,41.8S745.83,397.68,745.83,372.85Zm40.95.35c0-22.93-3.47-33.09-10.24-33.09s-10.23,10.16-10.23,33.09,3.4,33,10.23,33S786.78,396.24,786.78,373.2Z"/><path class="cls-1" d="M813.56,372.77c0-24.83,13.41-41.17,30.72-41.17s30.72,16,30.72,41.17-12,41.8-30.72,41.8S813.56,397.6,813.56,372.77Zm41,.35c0-22.92-3.47-33.08-10.24-33.08s-10.23,10.16-10.23,33.08,3.39,33,10.23,33S854.52,396.16,854.52,373.12Z"/></svg>